<svg xmlns="http://www.w3.org/2000/svg" viewBox="0 0 900 700">
  <defs>
    <filter id="s" x="-20%" y="-20%" width="140%" height="140%">
      <feDropShadow dx="0" dy="18" stdDeviation="18" flood-color="#172026" flood-opacity=".18"/>
    </filter>
    <linearGradient id="sky" x1="0" x2="1" y1="0" y2="1">
      <stop offset="0" stop-color="#8de7ff"/>
      <stop offset=".45" stop-color="#6b8cff"/>
      <stop offset="1" stop-color="#4ad6b4"/>
    </linearGradient>
    <linearGradient id="moon" x1="0" x2="1">
      <stop offset="0" stop-color="#f4f2dc"/>
      <stop offset="1" stop-color="#c9d2df"/>
    </linearGradient>
  </defs>
  <g filter="url(#s)" stroke="#172026" stroke-width="10" stroke-linecap="round" stroke-linejoin="round">
    <path d="M146 418c94-118 285-168 442-98 96 43 151 124 174 228-116 70-298 81-447 43-94-24-164-78-169-173Z" fill="url(#moon)"/>
    <path d="M262 448c64-35 145-52 234-39 82 12 144 48 186 103-94 39-219 45-326 19-52-13-84-40-94-83Z" fill="#e8edf2" opacity=".7" stroke-width="7"/>
    <path d="M214 176c122 49 225 111 311 188-95-32-206-74-333-130-42-18-36-81 22-58Z" fill="url(#sky)"/>
    <circle cx="205" cy="194" r="54" fill="#fff181"/>
    <path d="M475 356h156l36 93H437l38-93Z" fill="#fff7d8"/>
    <path d="M512 284h78c28 0 51 23 51 51v28H461v-28c0-28 23-51 51-51Z" fill="#8de7ff"/>
    <path d="M495 363v86M607 363v86M436 449h232" fill="none"/>
    <circle cx="294" cy="504" r="24" fill="#9faec0"/>
    <circle cx="706" cy="552" r="18" fill="#9faec0"/>
  </g>
</svg>
