<svg xmlns="http://www.w3.org/2000/svg" viewBox="0 0 512 512" role="img" aria-label="Restart">
  <defs>
    <filter id="shadow" x="-20%" y="-20%" width="140%" height="140%">
      <feDropShadow dx="0" dy="16" stdDeviation="14" flood-color="#172026" flood-opacity=".22"/>
      <feDropShadow dx="0" dy="4" stdDeviation="4" flood-color="#172026" flood-opacity=".12"/>
    </filter>
  </defs>
  <g filter="url(#shadow)">
    <path fill="#fff" d="M255.9 43.5c85.9 0 162.9 52 195.2 130.1l24.6-10.5c16.8-7.2 33.2 10.8 24.5 26.9L443.1 296c-8 14.9-29.6 13.6-35.8-2.1l-43.9-112.2c-6.6-16.8 10.1-32.9 26.7-25.8l16.4 7C378 105.7 319.3 68.2 254.6 70c-52 1.5-100.9 23.2-137.3 61.1-13 13.6-34.8 13.9-48.1.6-12.4-12.4-12.8-32.3-.7-45 49.2-51.5 115.8-80.6 187.4-83.2Zm-189 172.2c8-14.9 29.6-13.6 35.8 2.1l43.9 112.2c6.6 16.8-10.1 32.9-26.7 25.8l-16.4-7c28.6 57.2 87.2 94.7 152 92.9 52-1.5 100.9-23.2 137.3-61.1 13-13.6 34.8-13.9 48.1-.6 12.4 12.4 12.8 32.3.7 45-49.1 51.4-115.7 80.5-187.3 83.1-85.9 0-162.9-52-195.2-130.1l-24.6 10.5C17.7 395.7 1.3 377.7 10 361.6l56.9-105.9Z"/>
    <path fill="#172026" d="M255.9 74.6c72.8 0 137.6 44.8 164.1 112.4l9.2 23.6 24.5-10.5-28.6 53.1-22-56.2 18.8 8.1-10.7-23.1C382.9 121 321.5 80.9 253.8 82.7c-55.3 1.5-107.3 24.6-146 64.9-6.8 7.1-18.2 7.3-25.1.4-6.4-6.4-6.6-16.8-.3-23.3 45.7-47.8 107.4-74.1 173.5-50.1Zm-173.1 184 22 56.2-18.8-8.1 10.7 23.1c28.2 61 89.6 101.1 157.4 99.3 55.3-1.5 107.3-24.6 146-64.9 6.8-7.1 18.2-7.3 25.1-.4 6.4 6.4 6.6 16.8.3 23.3-45.7 47.8-107.4 74.1-173.5 75.9-72.8 0-137.6-44.8-164.1-112.4l-9.2-23.6-24.5 10.5 28.6-52.9Z"/>
    <path fill="#62c6c4" d="M252.8 115.3c50.6 0 96.5 28.9 118.8 73.4l-22.9 10.4c-18-35.6-55-58.8-95.9-58.8-32 0-62.1 14.2-82.6 38.9l-19.2-16.3c25.3-30.3 62.4-47.6 101.8-47.6Z"/>
    <path fill="#ffd166" d="M257.1 396.7c-50.6 0-96.5-28.9-118.8-73.4l22.9-10.4c18 35.6 55 58.8 95.9 58.8 32 0 62.1-14.2 82.6-38.9l19.2 16.3c-25.3 30.3-62.4 47.6-101.8 47.6Z"/>
  </g>
</svg>
