<svg xmlns="http://www.w3.org/2000/svg" viewBox="0 0 900 700">
  <defs>
    <filter id="s" x="-20%" y="-20%" width="140%" height="140%"><feDropShadow dx="0" dy="18" stdDeviation="17" flood-color="#172026" flood-opacity=".18"/></filter>
    <radialGradient id="neb" cx=".45" cy=".42" r=".62"><stop offset="0" stop-color="#fff3a0"/><stop offset=".35" stop-color="#ee78d6"/><stop offset=".68" stop-color="#6e78ff"/><stop offset="1" stop-color="#2fd3c2"/></radialGradient>
  </defs>
  <g filter="url(#s)" stroke="#172026" stroke-width="10" stroke-linecap="round" stroke-linejoin="round">
    <path d="M171 427c55-166 190-250 356-221 93 16 166 70 218 161-60 104-164 166-306 173-117 6-206-32-268-113Z" fill="url(#neb)"/>
    <path d="M239 398c78-67 172-93 282-77 74 11 135 37 183 78-80 39-166 52-258 39-82-11-151-25-207-40Z" fill="#ffffff" opacity=".35" stroke-width="7"/>
    <circle cx="362" cy="303" r="16" fill="#fff8b8"/>
    <circle cx="595" cy="388" r="20" fill="#fff8b8"/>
    <path d="M429 410l74-44 68 115-74 44-68-115Z" fill="#f6f8fb"/>
    <path d="M392 371l70-41 35 59-70 42-35-60ZM540 460l72-43 36 61-73 42-35-60Z" fill="#74d7ff"/>
    <circle cx="503" cy="445" r="28" fill="#ffe681"/>
    <path d="M503 445 646 336M503 445 332 533" fill="none" stroke-width="8"/>
  </g>
</svg>
