<svg xmlns="http://www.w3.org/2000/svg" viewBox="0 0 900 700">
  <defs>
    <filter id="s" x="-20%" y="-20%" width="140%" height="140%"><feDropShadow dx="0" dy="20" stdDeviation="18" flood-color="#172026" flood-opacity=".16"/></filter>
    <linearGradient id="lava" x1="0" x2="0" y1="0" y2="1"><stop offset="0" stop-color="#ffef7a"/><stop offset=".45" stop-color="#ff7a4d"/><stop offset="1" stop-color="#c3443d"/></linearGradient>
    <linearGradient id="rock" x1="0" x2="1"><stop offset="0" stop-color="#6f7f83"/><stop offset="1" stop-color="#384c57"/></linearGradient>
  </defs>
  <g filter="url(#s)" stroke="#172026" stroke-width="10" stroke-linecap="round" stroke-linejoin="round">
    <path d="M276 538c45-148 113-270 202-368 77 91 143 212 197 363-115 74-288 75-399 5Z" fill="url(#rock)"/>
    <path d="M430 222c28 16 61 16 95 0l-48-58-47 58Z" fill="#ffef7a"/>
    <path d="M477 229c-8 90 4 180 36 271" stroke="#ff7a4d" stroke-width="18" fill="none"/>
    <path d="M391 289c37 43 51 103 43 181" stroke="#ffbd50" stroke-width="14" fill="none"/>
    <path d="M116 557c91-75 187-109 290-103 143 8 263 47 364 118-159 63-336 72-531 26-47-11-88-25-123-41Z" fill="#4ab06d"/>
    <path d="M185 539c27-52 69-78 126-76-16 55-51 86-105 93" fill="#8bd46f"/>
    <path d="M622 536c27-59 77-88 149-87-22 65-68 101-137 109" fill="#8bd46f"/>
    <path d="M366 133c-35-50-25-90 30-121 3 46 22 84 57 114" fill="#f7c65b"/>
    <path d="M520 124c42-39 89-47 142-25-35 29-57 65-68 108" fill="#ff8d6b"/>
  </g>
</svg>
